<?xml version="1.0" standalone="no"?>
<!DOCTYPE svg PUBLIC "-//W3C//DTD SVG 20010904//EN"
 "http://www.w3.org/TR/2001/REC-SVG-20010904/DTD/svg10.dtd">
<svg version="1.0" xmlns="http://www.w3.org/2000/svg"
 width="136.000000pt" height="120.000000pt" viewBox="0 0 136.000000 120.000000"
 preserveAspectRatio="xMidYMid meet">

<g transform="translate(0.000000,120.000000) scale(0.100000,-0.100000)"
fill="#000000" stroke="none">
<path d="M0 842 l0 -359 32 4 c45 6 97 34 104 55 11 35 -6 55 -61 74 -30 10
-55 22 -55 26 0 11 5 10 47 -7 19 -8 44 -15 54 -15 11 0 19 -4 19 -9 0 -12 35
-20 49 -11 14 8 17 38 6 63 -4 10 -3 17 3 17 6 0 12 -10 14 -22 4 -29 34 -34
83 -14 42 18 45 46 5 57 -23 6 -22 7 8 8 58 2 55 51 -4 81 -42 22 -97 87 -118
140 -10 25 -21 51 -24 59 -3 9 -1 12 6 7 6 -4 16 -25 22 -46 14 -51 56 -101
69 -81 6 9 11 10 15 2 4 -6 32 -29 62 -51 l54 -40 40 42 c46 50 50 65 15 74
-14 3 -25 11 -25 16 0 6 11 7 24 4 l24 -6 -14 47 c-8 25 -14 52 -14 60 0 27
17 3 30 -42 14 -51 30 -68 30 -33 -1 43 -37 103 -90 151 -60 54 -63 76 -4 25
67 -57 114 -125 114 -163 0 -20 0 -20 73 29 47 32 55 41 45 53 -9 12 -7 14 13
11 13 -1 47 3 76 11 49 12 53 15 58 49 4 21 9 49 11 65 l6 27 -401 0 -401 0 0
-358z"/>
<path d="M816 1184 c-3 -9 -6 -35 -6 -60 0 -45 1 -46 61 -58 8 -2 21 -6 29 -9
8 -3 31 -8 50 -11 28 -5 38 -2 53 16 l18 23 -6 -35 c-6 -31 -3 -38 24 -58 27
-20 46 -52 22 -38 -5 4 -4 -5 2 -19 8 -16 18 -23 28 -19 19 5 39 -39 39 -85 0
-49 12 -54 66 -30 65 28 104 39 104 30 0 -5 -9 -15 -20 -22 -18 -13 -19 -17
-8 -46 11 -29 10 -36 -8 -60 -13 -17 -45 -37 -81 -51 -35 -13 -63 -30 -66 -40
-3 -9 -12 -34 -21 -54 -9 -21 -13 -38 -8 -38 4 0 38 25 75 56 59 49 76 57 132
67 l65 11 0 273 0 273 -269 0 c-236 0 -270 -2 -275 -16z"/>
<path d="M853 1025 c-7 -8 -13 -21 -13 -29 0 -10 -6 -13 -17 -10 -15 5 -14 3
2 -10 11 -8 26 -20 33 -26 16 -14 16 2 0 18 -9 9 -10 15 -2 20 12 8 26 52 16
52 -4 -1 -13 -7 -19 -15z"/>
<path d="M908 1013 c6 -2 18 -2 25 0 6 3 1 5 -13 5 -14 0 -19 -2 -12 -5z"/>
<path d="M720 1002 c0 -5 14 -7 30 -4 17 2 30 6 30 8 0 2 -13 4 -30 4 -16 0
-30 -4 -30 -8z"/>
<path d="M665 990 c-3 -5 -1 -10 4 -10 6 0 11 5 11 10 0 6 -2 10 -4 10 -3 0
-8 -4 -11 -10z"/>
<path d="M930 990 c0 -6 7 -10 15 -10 8 0 15 2 15 4 0 2 -7 6 -15 10 -8 3 -15
1 -15 -4z"/>
<path d="M712 964 c-11 -12 -17 -12 -28 -3 -12 10 -13 9 -8 -4 6 -15 67 -58
129 -90 17 -8 61 -31 98 -51 38 -20 72 -36 77 -36 9 0 -24 88 -39 103 -4 4 -6
-7 -3 -24 3 -21 1 -30 -6 -25 -6 3 -13 0 -15 -6 -3 -7 -6 2 -6 20 -1 25 -5 32
-22 32 -11 0 -17 -4 -14 -10 3 -5 -1 -10 -10 -10 -12 0 -15 6 -10 22 6 16 4
20 -7 16 -20 -8 -52 18 -45 36 6 16 -15 12 -43 -8 -8 -6 -6 0 5 13 l20 24 -25
-7 c-14 -3 -19 -3 -12 0 6 3 12 10 12 15 0 14 -34 10 -48 -7z"/>
<path d="M886 965 c-3 -8 -1 -15 4 -15 6 0 10 7 10 15 0 8 -2 15 -4 15 -2 0
-6 -7 -10 -15z"/>
<path d="M950 940 c0 -5 10 -10 23 -10 18 0 19 2 7 10 -19 13 -30 13 -30 0z"/>
<path d="M910 936 c0 -5 15 -23 33 -40 19 -17 36 -38 39 -46 3 -8 9 -12 13 -8
4 4 -13 28 -39 55 -25 26 -46 44 -46 39z"/>
<path d="M587 902 c-18 -11 -26 -23 -23 -34 2 -10 -1 -18 -7 -18 -16 -1 -71
-77 -99 -137 -13 -26 -25 -50 -28 -53 -3 -3 -6 -17 -8 -31 -2 -21 6 -33 37
-59 23 -17 41 -36 41 -41 0 -12 -51 11 -73 33 -10 10 -24 18 -31 18 -17 0 -9
-59 11 -82 8 -9 13 -22 11 -29 -2 -6 -17 7 -32 30 -33 47 -39 51 -27 17 7 -17
5 -27 -6 -38 -13 -14 -11 -20 21 -54 37 -40 44 -54 26 -54 -5 0 -10 5 -10 10
0 6 -12 24 -26 40 l-27 29 -38 -38 c-28 -28 -37 -43 -32 -59 3 -12 10 -22 15
-22 5 0 7 -4 4 -9 -3 -4 8 -29 24 -55 35 -55 35 -55 14 -52 -21 3 -78 102 -70
122 3 9 -1 14 -14 14 -21 0 -27 -15 -10 -25 6 -4 8 -10 5 -15 -6 -9 16 -52 61
-120 25 -37 43 -50 45 -32 0 4 3 16 5 27 2 11 7 36 10 57 4 23 12 38 24 41 12
3 21 18 25 40 4 20 14 38 22 41 8 3 11 10 8 16 -3 5 -2 10 3 10 19 0 21 -14 5
-33 -10 -11 -12 -17 -5 -13 8 5 12 1 12 -11 0 -11 3 -14 8 -7 4 7 38 11 89 11
91 -1 106 6 125 59 6 19 18 34 25 34 18 0 16 -21 -4 -50 -16 -23 -16 -23 3
-16 31 13 49 12 49 -4 0 -28 -100 -50 -215 -47 l-105 2 3 -40 c2 -38 1 -39
-13 -20 -14 17 -17 18 -25 5 -18 -27 -22 -60 -11 -74 15 -18 3 -50 -14 -36
-11 9 -25 4 -25 -10 0 -9 90 -80 102 -80 4 0 6 16 3 35 -2 22 0 34 7 32 25 -5
15 19 -13 32 -16 7 -28 16 -25 19 3 3 1 11 -5 19 -6 7 -8 13 -4 13 4 0 2 7 -5
15 -24 30 6 14 43 -21 22 -22 43 -34 52 -30 15 5 21 26 8 26 -5 0 -19 10 -33
21 -14 11 -19 18 -12 14 7 -3 24 -9 39 -11 33 -6 45 -13 39 -23 -3 -4 4 -7 14
-8 25 -2 14 33 -13 42 l-22 6 23 11 c12 6 22 19 22 29 0 13 8 17 30 17 17 -1
30 -5 30 -9 0 -11 28 -25 68 -34 20 -4 32 -3 32 4 0 6 -6 11 -14 11 -8 0 -27
5 -42 10 -20 8 -24 14 -16 22 7 7 16 8 24 2 7 -6 36 -8 63 -7 28 2 58 3 68 4
9 0 17 4 17 9 0 5 -8 10 -17 12 -15 3 -12 9 16 35 19 18 35 40 36 50 1 10 14
38 30 63 49 75 56 95 38 120 -14 20 -16 20 -34 4 -25 -22 -25 -4 0 28 11 13
23 39 28 58 5 18 13 35 19 37 13 4 16 -44 4 -66 -8 -15 -6 -17 15 -13 21 4 24
9 23 46 0 40 -2 42 -79 89 -43 27 -83 46 -88 43 -5 -3 -24 -1 -42 6 -28 10
-30 12 -13 18 17 6 17 8 -6 15 -14 4 -41 21 -60 36 -40 33 -63 36 -103 11z
m63 -33 c0 -5 -7 -12 -15 -15 -8 -4 -12 -10 -9 -15 3 -5 2 -9 -3 -10 -10 -1
-30 -6 -63 -15 -21 -6 -19 -1 18 34 39 37 72 47 72 21z m103 -83 c51 -21 97
-80 97 -124 0 -61 -16 -71 -25 -16 -9 64 -45 110 -95 125 -119 36 -220 -91
-144 -180 32 -38 80 -49 122 -27 38 20 55 49 46 79 -23 76 -124 93 -124 21 0
-29 27 -51 43 -35 9 9 9 14 -3 21 -18 11 -6 25 15 16 22 -8 29 -34 15 -51 -18
-21 -56 -19 -80 5 -43 43 -10 110 55 110 46 0 94 -42 101 -91 5 -30 1 -41 -26
-72 -27 -32 -38 -37 -74 -37 -47 0 -97 27 -122 65 -35 53 -3 157 59 192 29 16
100 16 140 -1z m82 -6 c10 -11 16 -20 13 -20 -3 0 -13 9 -23 20 -10 11 -16 20
-13 20 3 0 13 -9 23 -20z m-415 -231 c0 -6 -4 -7 -10 -4 -5 3 -10 11 -10 16 0
6 5 7 10 4 6 -3 10 -11 10 -16z m110 1 c0 -11 -4 -20 -10 -20 -5 0 -10 9 -10
20 0 11 5 20 10 20 6 0 10 -9 10 -20z m-126 -112 l27 -43 -31 35 c-27 30 -37
50 -26 50 2 0 15 -19 30 -42z m-54 -38 c0 -12 9 -30 20 -42 24 -26 29 -58 5
-38 -8 7 -15 17 -15 22 0 6 -9 22 -20 38 -18 26 -18 40 2 40 4 0 8 -9 8 -20z
m10 -104 c0 -5 -9 -1 -19 8 -12 11 -21 13 -24 6 -3 -6 -4 -5 -3 2 1 7 -3 19
-11 26 -7 7 -13 21 -13 30 0 11 12 3 35 -23 19 -22 35 -44 35 -49z m140 -5 c0
-5 10 -12 23 -15 21 -7 21 -7 2 -15 -21 -9 -49 5 -39 20 3 5 -2 6 -10 3 -9 -3
-16 -1 -16 5 0 6 9 11 20 11 11 0 20 -4 20 -9z m-77 -162 c10 -18 15 -34 12
-37 -9 -10 -54 40 -48 54 8 21 16 17 36 -17z"/>
<path d="M990 916 c0 -2 7 -7 16 -10 8 -3 12 -2 9 4 -6 10 -25 14 -25 6z"/>
<path d="M885 900 c3 -5 8 -10 11 -10 2 0 4 5 4 10 0 6 -5 10 -11 10 -5 0 -7
-4 -4 -10z"/>
<path d="M1089 895 c-1 -5 0 -20 1 -33 1 -13 -11 -34 -29 -52 -38 -39 -23 -39
18 -1 17 16 31 37 31 48 0 20 -19 54 -21 38z"/>
<path d="M1190 774 c-42 -23 -45 -27 -46 -70 -1 -41 0 -44 20 -38 11 3 35 14
51 23 26 15 30 23 30 60 1 23 -2 44 -5 46 -3 2 -26 -8 -50 -21z"/>
<path d="M1268 623 c-16 -2 -28 -10 -28 -16 0 -7 -36 -36 -80 -65 -44 -30 -80
-56 -80 -59 0 -3 7 0 15 7 9 7 18 10 21 7 7 -7 -50 -67 -63 -67 -11 0 -45 -79
-38 -90 3 -5 1 -11 -5 -15 -16 -10 -12 -58 7 -84 9 -14 11 -21 5 -17 -16 10
-26 -35 -19 -90 2 -24 1 -44 -4 -44 -5 0 -9 15 -9 34 0 39 -18 96 -31 96 -26
0 -39 -77 -14 -86 8 -4 15 -10 15 -16 0 -5 -4 -6 -10 -3 -5 3 -10 2 -10 -3 0
-11 40 -48 60 -55 12 -4 11 -6 -2 -6 -10 -1 -36 15 -58 35 -33 30 -41 33 -46
20 -3 -9 -4 -25 -1 -36 3 -11 1 -23 -4 -26 -5 -3 -9 -14 -9 -25 0 -18 9 -19
240 -19 l240 0 0 315 0 315 -32 -1 c-18 -1 -45 -4 -60 -6z m-224 -429 c3 -8 2
-12 -4 -9 -6 3 -10 10 -10 16 0 14 7 11 14 -7z m20 -153 c3 -4 -6 -6 -19 -3
-14 2 -25 6 -25 8 0 8 39 4 44 -5z"/>
<path d="M940 606 c7 -7 14 -6 21 1 9 9 7 12 -9 10 -14 -1 -18 -5 -12 -11z"/>
<path d="M254 520 c0 -13 4 -16 10 -10 7 7 7 13 0 20 -6 6 -10 3 -10 -10z"/>
<path d="M270 469 c0 -20 16 -43 23 -32 3 4 -1 17 -9 28 -10 13 -14 15 -14 4z"/>
<path d="M305 470 c3 -5 8 -10 11 -10 2 0 4 5 4 10 0 6 -5 10 -11 10 -5 0 -7
-4 -4 -10z"/>
<path d="M243 412 c1 -14 5 -18 11 -12 7 7 6 14 -1 21 -9 9 -12 7 -10 -9z"/>
<path d="M206 391 c-4 -7 -5 -15 -2 -18 9 -9 19 4 14 18 -4 11 -6 11 -12 0z"/>
<path d="M170 370 c0 -11 4 -20 9 -20 5 0 7 9 4 20 -3 11 -7 20 -9 20 -2 0 -4
-9 -4 -20z"/>
<path d="M72 360 c0 -14 2 -19 5 -12 2 6 2 18 0 25 -3 6 -5 1 -5 -13z"/>
<path d="M142 345 c0 -16 2 -22 5 -12 2 9 2 23 0 30 -3 6 -5 -1 -5 -18z"/>
<path d="M28 320 c-1 -16 -2 -43 -3 -60 -1 -16 2 -30 7 -30 4 0 8 27 8 60 0
62 -9 84 -12 30z"/>
<path d="M100 310 c0 -11 4 -20 9 -20 6 0 9 9 8 20 -1 11 -5 20 -9 20 -4 0 -8
-9 -8 -20z"/>
<path d="M68 290 c-3 -16 -1 -30 4 -30 4 0 8 14 8 30 0 17 -2 30 -4 30 -2 0
-6 -13 -8 -30z"/>
<path d="M156 253 c12 -48 23 -72 60 -130 23 -36 32 -59 26 -65 -13 -13 -66
59 -88 120 -9 26 -19 54 -22 62 -3 8 -4 18 -4 23 1 4 -2 7 -8 7 -12 0 -5 -54
15 -110 21 -60 74 -140 88 -134 7 2 22 18 33 35 l21 30 -30 32 c-30 31 -77
120 -77 145 0 6 -5 12 -10 12 -6 0 -8 -11 -4 -27z"/>
<path d="M190 274 c0 -11 60 -118 80 -144 20 -25 20 -25 35 -5 14 18 14 20 -5
27 -13 5 -18 13 -14 19 4 8 3 9 -4 5 -11 -7 -45 35 -40 50 4 16 -22 54 -37 54
-8 0 -15 -3 -15 -6z"/>
<path d="M576 262 c-9 -15 22 -35 41 -27 15 6 15 8 3 13 -8 2 -20 9 -27 14 -7
5 -13 5 -17 0z"/>
<path d="M768 253 c12 -2 32 -2 45 0 12 2 2 4 -23 4 -25 0 -35 -2 -22 -4z"/>
<path d="M640 220 c0 -5 6 -10 14 -10 7 0 29 -3 47 -6 19 -4 30 -3 26 2 -4 4
-15 9 -24 10 -9 2 -27 5 -40 9 -13 3 -23 1 -23 -5z"/>
<path d="M849 220 c-9 -5 -37 -11 -62 -12 -25 -2 -42 -7 -38 -11 11 -11 87 2
108 19 21 15 16 18 -8 4z"/>
<path d="M82 178 c3 -25 19 -76 36 -112 24 -52 36 -66 53 -66 20 0 21 2 8 18
-31 36 -78 141 -83 184 -1 3 -5 10 -10 15 -5 4 -7 -12 -4 -39z"/>
<path d="M33 164 c7 -51 32 -131 47 -149 7 -8 18 -15 25 -15 9 0 6 15 -11 49
-13 27 -29 70 -35 95 -15 59 -33 73 -26 20z"/>
<path d="M580 184 c0 -8 5 -12 10 -9 6 4 8 11 5 16 -9 14 -15 11 -15 -7z"/>
<path d="M615 180 c-4 -6 3 -10 14 -10 25 0 27 6 6 13 -8 4 -17 2 -20 -3z"/>
<path d="M517 173 c-15 -14 -5 -25 46 -48 54 -26 97 -32 97 -15 0 6 -11 10
-25 10 -24 0 -95 34 -106 51 -3 5 -8 6 -12 2z"/>
<path d="M840 170 c-8 -5 -10 -10 -5 -10 6 0 17 5 25 10 8 5 11 10 5 10 -5 0
-17 -5 -25 -10z"/>
<path d="M675 160 c3 -5 8 -10 11 -10 2 0 4 5 4 10 0 6 -5 10 -11 10 -5 0 -7
-4 -4 -10z"/>
<path d="M1 125 c1 -59 22 -119 43 -123 16 -3 16 -2 3 25 -9 16 -18 47 -22 68
-11 61 -24 77 -24 30z"/>
<path d="M748 143 c6 -2 18 -2 25 0 6 3 1 5 -13 5 -14 0 -19 -2 -12 -5z"/>
<path d="M480 115 c0 -14 75 -53 122 -62 22 -4 29 -3 24 5 -4 7 -15 12 -24 12
-9 0 -41 13 -69 29 -35 20 -53 25 -53 16z"/>
<path d="M317 96 c-7 -17 50 -67 68 -60 11 4 5 15 -22 40 -41 39 -39 38 -46
20z"/>
<path d="M703 93 c15 -2 37 -2 50 0 12 2 0 4 -28 4 -27 0 -38 -2 -22 -4z"/>
<path d="M281 54 c-1 -23 36 -54 65 -54 13 0 11 5 -9 20 -14 11 -30 20 -35 20
-6 0 -13 8 -15 18 -4 13 -5 13 -6 -4z"/>
<path d="M465 50 c10 -17 58 -38 100 -44 22 -3 33 -3 25 0 -8 4 -37 17 -63 30
-52 26 -72 30 -62 14z"/>
<path d="M758 53 c7 -3 16 -2 19 1 4 3 -2 6 -13 5 -11 0 -14 -3 -6 -6z"/>
<path d="M673 43 c15 -2 37 -2 50 0 12 2 0 4 -28 4 -27 0 -38 -2 -22 -4z"/>
<path d="M240 15 c-10 -13 -9 -15 8 -15 15 0 20 5 16 15 -8 19 -9 19 -24 0z"/>
<path d="M424 21 c4 -5 0 -11 -6 -14 -7 -3 -3 -4 9 -4 17 1 19 4 11 14 -12 15
-22 18 -14 4z"/>
<path d="M718 3 c7 -3 16 -2 19 1 4 3 -2 6 -13 5 -11 0 -14 -3 -6 -6z"/>
</g>
</svg>
