<?xml version="1.0" encoding="utf-8"?>
<!-- Generator: Adobe Illustrator 16.0.0, SVG Export Plug-In . SVG Version: 6.00 Build 0)  -->
<!DOCTYPE svg PUBLIC "-//W3C//DTD SVG 1.1//EN" "http://www.w3.org/Graphics/SVG/1.1/DTD/svg11.dtd">
<svg version="1.1" id="Layer_1" xmlns="http://www.w3.org/2000/svg" xmlns:xlink="http://www.w3.org/1999/xlink" x="0px" y="0px"
	 width="576px" height="576px" viewBox="0 0 576 576" enable-background="new 0 0 576 576" xml:space="preserve">
<g>
	<defs>
		<rect id="SVGID_1_" width="576" height="576"/>
	</defs>
	<clipPath id="SVGID_2_">
		<use xlink:href="#SVGID_1_"  overflow="visible"/>
	</clipPath>
	<path clip-path="url(#SVGID_2_)" d="M124.934,343.894c10.638-1.239,15.61-2.486,15.61-14.195v-84.085
		c-9.931-12.237-12.773-12.781-15.075-12.781v-4.428h37.429l61.559,75.753h0.351v-53.752c0-10.641-2.128-16.503-16.498-17.573
		v-4.428h38.141v4.428c-12.771,1.608-13.843,5.689-13.843,14.195v104.495h-4.957l-78.944-96.152h-0.358v70.966
		c0,12.774,3.731,16.135,16.856,17.558v4.437h-40.271V343.894z"/>
	<path clip-path="url(#SVGID_2_)" fill="none" stroke="#000000" d="M124.934,343.894c10.638-1.239,15.61-2.486,15.61-14.195v-84.085
		c-9.931-12.237-12.773-12.781-15.075-12.781v-4.428h37.429l61.559,75.753h0.351v-53.752c0-10.641-2.128-16.503-16.498-17.573
		v-4.428h38.141v4.428c-12.771,1.608-13.843,5.689-13.843,14.195v104.495h-4.957l-78.944-96.152h-0.358v70.966
		c0,12.774,3.731,16.135,16.856,17.558v4.437h-40.271V343.894z"/>
	<path clip-path="url(#SVGID_2_)" d="M331.041,264.06c-3.195-12.414-13.838-32.817-34.768-32.817
		c-9.223,0-18.985,5.323-18.985,16.854c0,9.575,3.371,13.479,18.278,20.927l26.073,12.948c6.028,3.026,19.52,13.316,19.52,32.648
		c0,15.612-11.362,37.084-43.995,37.084c-16.859,0-24.843-6.034-30.336-6.034c-3.734,0-4.62,3.19-5.326,6.034h-5.137v-43.82h5.137
		c3.551,17.912,13.839,37.963,36.37,37.963c21.289,0,22.177-17.561,22.177-19.871c0-11.889-8.34-16.141-19.871-21.646l-11.885-5.675
		c-30.342-14.551-30.342-29.803-30.342-37.964c0-10.82,5.503-34.939,39.213-34.939c14.193,0,22.523,5.846,27.672,5.846
		c4.078,0,4.961-2.661,5.848-6.03h5.326v38.492H331.041z"/>
	<path clip-path="url(#SVGID_2_)" fill="none" stroke="#000000" d="M331.041,264.06c-3.195-12.414-13.838-32.817-34.768-32.817
		c-9.223,0-18.985,5.323-18.985,16.854c0,9.575,3.371,13.479,18.278,20.927l26.073,12.948c6.028,3.026,19.52,13.316,19.52,32.648
		c0,15.612-11.362,37.084-43.995,37.084c-16.859,0-24.843-6.034-30.336-6.034c-3.734,0-4.62,3.19-5.326,6.034h-5.137v-43.82h5.137
		c3.551,17.912,13.839,37.963,36.37,37.963c21.289,0,22.177-17.561,22.177-19.871c0-11.889-8.34-16.141-19.871-21.646l-11.885-5.675
		c-30.342-14.551-30.342-29.803-30.342-37.964c0-10.82,5.503-34.939,39.213-34.939c14.193,0,22.523,5.846,27.672,5.846
		c4.078,0,4.961-2.661,5.848-6.03h5.326v38.492H331.041z"/>
	<path clip-path="url(#SVGID_2_)" d="M351.599,228.403h100.573v35.657h-4.25c-3.901-18.448-8.693-29.621-39.211-29.621
		c-9.578,0-12.765,0.708-12.765,8.338v41.153c21.995,0.355,24.66-12.237,27.143-26.43h4.429v59.961h-4.429
		c-1.948-14.547-4.781-27.498-27.143-27.498v41.33c0,11.714,7.094,12.068,19.516,12.6v4.436h-63.863v-4.436
		c10.114-1.063,15.606-1.599,15.606-12.6v-85.865c0-11.7-7.276-12.053-15.606-12.598V228.403z"/>
	<path clip-path="url(#SVGID_2_)" fill="none" stroke="#000000" d="M351.599,228.403h100.573v35.657h-4.25
		c-3.901-18.448-8.693-29.621-39.211-29.621c-9.578,0-12.765,0.708-12.765,8.338v41.153c21.995,0.355,24.66-12.237,27.143-26.43
		h4.429v59.961h-4.429c-1.948-14.547-4.781-27.498-27.143-27.498v41.33c0,11.714,7.094,12.068,19.516,12.6v4.436h-63.863v-4.436
		c10.114-1.063,15.606-1.599,15.606-12.6v-85.865c0-11.7-7.276-12.053-15.606-12.598V228.403z"/>
	<path clip-path="url(#SVGID_2_)" d="M288.555,105.252c-101.281,0-183.386,82.103-183.386,183.386
		c0,101.277,82.105,183.381,183.386,183.381c101.279,0,183.385-82.104,183.385-183.381
		C471.939,187.355,389.834,105.252,288.555,105.252 M288.557,468.335c-99.245,0-179.701-80.448-179.701-179.695
		c0-99.25,80.456-179.702,179.701-179.702c99.241,0,179.695,80.452,179.695,179.702
		C468.252,387.887,387.798,468.335,288.557,468.335"/>
	<path clip-path="url(#SVGID_2_)" fill="none" stroke="#000000" d="M288.555,105.252c-101.281,0-183.386,82.103-183.386,183.386
		c0,101.277,82.105,183.381,183.386,183.381c101.279,0,183.385-82.104,183.385-183.381
		C471.939,187.355,389.834,105.252,288.555,105.252z M288.557,468.335c-99.245,0-179.701-80.448-179.701-179.695
		c0-99.25,80.456-179.702,179.701-179.702c99.241,0,179.695,80.452,179.695,179.702
		C468.252,387.887,387.798,468.335,288.557,468.335z"/>
	<path clip-path="url(#SVGID_2_)" d="M509.251,259.876c-1.661-4.366-3.201-8.767-4.589-13.228
		c-0.833-8.425-0.874-16.741-0.689-24.021c3.014-15.63,14.302-23.896,27.858-28.996c-1.574-3.973-3.531-8.685-4.891-11.969
		c-14.614,7.091-32.211,8.356-45.446-4.136c-2.814-2.982-5.566-6.03-8.229-9.165c-4.41-7.977-7.908-16.277-10.725-23.576
		c-3.183-15.596,4.082-27.553,14.651-37.457c-2.981-3.059-6.595-6.673-9.104-9.184c-10.796,12.142-26.563,20.045-43.576,13.567
		c-3.253-1.457-6.479-2.974-9.667-4.576c-7.438-5.838-14.116-12.419-19.713-18.294c-8.915-13.185-6.777-27.006-0.797-40.2
		c-3.917-1.69-8.644-3.646-11.916-5.004c-5.33,15.35-16.877,28.68-35.068,29.213c-5.547-0.161-11.091-0.467-16.634-1.061
		c-7.062-2.307-13.758-5.069-19.645-7.672c-13.284-8.764-16.598-22.358-16.125-36.835c-4.267-0.055-9.375-0.064-12.924-0.055
		c0.948,16.215-4.619,32.955-21.215,40.403c-3.836,1.462-7.702,2.835-11.614,4.094c-9.032,1.01-18.005,1.059-25.817,0.871
		c-15.62-3.018-23.886-14.313-28.999-27.864c-3.959,1.571-8.68,3.532-11.943,4.881c7.077,14.635,8.337,32.216-4.147,45.454
		c-3.349,3.164-6.781,6.238-10.327,9.199c-7.782,4.24-15.836,7.624-22.946,10.366c-15.585,3.197-27.542-4.078-37.449-14.648
		c-3.059,2.977-6.674,6.589-9.173,9.096c12.137,10.799,20.036,26.566,13.563,43.578c-1.589,3.548-3.246,7.064-5.01,10.534
		c-5.602,6.972-11.813,13.247-17.386,18.548c-13.172,8.915-27.004,6.77-40.201,0.795c-1.683,3.924-3.641,8.642-4.996,11.912
		c15.35,5.336,28.686,16.879,29.211,35.07c-0.136,4.829-0.385,9.652-0.839,14.475c-2.435,7.922-5.513,15.446-8.409,21.99
		c-8.762,13.272-22.361,16.586-36.838,16.116c-0.054,4.26-0.058,9.376-0.054,12.912c16.214-0.944,32.956,4.622,40.404,21.231
		c1.501,3.933,2.907,7.902,4.194,11.922c0.996,8.982,1.041,17.901,0.851,25.661c-3.018,15.628-14.308,23.895-27.868,28.996
		c1.581,3.967,3.526,8.691,4.889,11.96c14.627-7.084,32.216-8.342,45.453,4.151c3.113,3.283,6.137,6.655,9.051,10.138
		c4.215,7.753,7.584,15.769,10.319,22.842c3.193,15.589-4.082,27.545-14.659,37.449c2.98,3.049,6.59,6.666,9.098,9.167
		c10.8-12.134,26.571-20.037,43.577-13.557c3.794,1.696,7.546,3.482,11.249,5.387c6.917,5.573,13.14,11.741,18.408,17.268
		c8.917,13.173,6.779,27.003,0.796,40.196c3.92,1.703,8.641,3.644,11.913,5.01c5.333-15.355,16.884-28.695,35.076-29.213
		c4.648,0.132,9.293,0.368,13.937,0.788c8.321,2.483,16.238,5.71,23.072,8.737c13.278,8.771,16.59,22.372,16.119,36.845
		c4.27,0.06,9.375,0.06,12.923,0.06c-0.949-16.228,4.615-32.965,21.219-40.407c4.398-1.678,8.839-3.234,13.344-4.635
		c8.398-0.819,16.683-0.854,23.947-0.683c15.629,3.016,23.883,14.31,28.992,27.873c3.961-1.575,8.691-3.54,11.956-4.893
		c-7.079-14.633-8.347-32.222,4.151-45.457c3.348-3.165,6.777-6.234,10.321-9.193c7.412-3.948,15.012-7.138,21.765-9.75
		c15.579-3.189,27.545,4.079,37.449,14.652c3.051-2.975,6.669-6.592,9.178-9.091c-12.143-10.804-20.047-26.571-13.571-43.584
		c2.118-4.726,4.371-9.395,6.828-13.977c5.23-6.29,10.874-11.983,15.986-16.85c13.182-8.916,26.997-6.775,40.204-0.803
		c1.68-3.915,3.637-8.625,4.996-11.918c-15.346-5.317-28.683-16.866-29.217-35.054c0.144-5.108,0.42-10.21,0.926-15.311
		c2.376-7.503,5.301-14.612,8.062-20.832c8.763-13.271,22.353-16.594,36.829-16.117c0.069-4.275,0.069-9.376,0.069-12.924
		C533.443,282.045,516.706,276.477,509.251,259.876 M497.846,267.46l-2.192,2.841c-4.386,4.273-11.396,2.842-17.115,2.376
		c-3.755-0.926-7.509-1.796-11.245-2.687c0.505,4.897,0.808,9.853,0.911,14.858c0.089,0.056,0.18,0.108,0.27,0.164
		c0.98,2.125,0.696,3.665-0.238,4.903c-0.036,5.234-0.297,10.415-0.772,15.533c4.528-1.113,9.098-2.092,13.707-2.898
		c4.833-0.482,10.105-0.943,13.601,2.834c3.966,6.658,2.558,17.449,1.766,25.126c-0.048,0.49-0.122,0.972-0.187,1.458
		c-1.292,5.763-2.898,11.663-6.002,16.946l-3.112,1.799c-5.688,2.262-11.629-1.752-16.725-4.363
		c-3.177-2.338-6.377-4.623-9.55-6.922c-1.402,4.768-2.994,9.453-4.771,14.047c0.097,0.136,0.197,0.268,0.294,0.403
		c0.101,2.462-0.841,3.792-2.294,4.564c-2.004,4.75-4.216,9.39-6.606,13.92c4.667,0.709,9.318,1.561,13.942,2.592
		c4.637,1.408,9.683,2.987,11.469,7.82c1.109,7.666-4.319,17.103-7.986,23.896c-0.108,0.2-0.228,0.392-0.339,0.589
		c-3.69,5.332-7.702,10.831-13.104,14.928l-3.568,0.45c-6.119-0.069-10.069-6.055-13.781-10.424
		c-2.069-3.422-4.18-6.803-6.259-10.187c-3.105,3.813-6.361,7.499-9.764,11.043c0.058,0.25,0.124,0.495,0.181,0.745
		c-0.914,2.486-2.444,3.299-4.252,3.353c-3.622,3.539-7.384,6.937-11.295,10.16c4.123,2.486,8.177,5.103,12.131,7.883
		c3.757,3.065,7.81,6.453,7.608,11.606c-1.767,6.955-9.288,13.149-15.139,17.896c-5.781,3.746-11.936,7.671-18.96,9.506
		l-3.461-0.945c-5.634-2.424-6.993-9.449-8.753-14.905c-0.599-3.956-1.254-7.889-1.878-11.813c-4.314,2.35-8.741,4.52-13.261,6.517
		c-0.04,0.235-0.07,0.469-0.11,0.704c-1.765,1.919-3.459,2.112-5.122,1.509c-4.689,1.896-9.475,3.607-14.352,5.109
		c2.841,3.849,5.567,7.791,8.143,11.842c2.281,4.274,4.743,8.971,2.577,13.644c-4.32,5.787-13.748,8.637-21,10.785
		c-6.845,1.263-14.115,2.572-21.385,1.568l-2.834-2.199c-4.278-4.384-2.85-11.401-2.374-17.106c0.95-3.863,1.842-7.729,2.758-11.575
		c-4.862,0.508-9.783,0.82-14.755,0.932c-0.115,0.187-0.225,0.376-0.342,0.562c-2.336,1.079-3.966,0.633-5.265-0.529
		c-5.136-0.043-10.221-0.301-15.247-0.765c1.145,4.626,2.15,9.293,2.974,14.003c0.472,4.835,0.951,10.095-2.838,13.598
		c-6.036,3.591-15.486,2.765-22.924,1.997c-7.126-1.531-14.796-3.062-21.482-6.984l-1.779-3.112
		c-2.27-5.685,1.731-11.618,4.352-16.717c2.331-3.167,4.609-6.354,6.9-9.518c-4.753-1.42-9.427-3.023-14.006-4.818
		c-0.142,0.102-0.28,0.208-0.424,0.31c-2.503,0.099-3.838-0.876-4.605-2.372c-4.73-2.023-9.353-4.246-13.863-6.651
		c-0.713,4.703-1.573,9.391-2.615,14.049c-1.397,4.648-2.975,9.691-7.814,11.472c-6.322,0.927-13.85-2.612-20.101-5.937
		c-6.257-4.348-13.206-8.827-18.141-15.337l-0.447-3.552c0.077-6.125,6.046-10.083,10.419-13.788c3.316-2.003,6.592-4.045,9.87-6.06
		c-3.854-3.134-7.578-6.419-11.158-9.855c-0.103,0.023-0.203,0.051-0.306,0.075c-2.204-0.812-3.093-2.106-3.306-3.648
		c-3.636-3.693-7.12-7.537-10.429-11.533c-2.42,3.999-4.965,7.93-7.661,11.768c-3.07,3.754-6.462,7.808-11.615,7.602
		c-6.56-1.664-12.459-8.463-17.092-14.15c-4.083-6.328-8.687-13.057-10.718-20.845l0.938-3.462
		c2.416-5.628,9.446-6.993,14.899-8.742c3.787-0.576,7.553-1.203,11.31-1.806c-2.344-4.365-4.51-8.841-6.495-13.413
		c-0.073-0.012-0.146-0.021-0.22-0.034c-1.689-1.558-2.042-3.06-1.69-4.532c-1.935-4.817-3.665-9.738-5.183-14.752
		c-3.768,2.771-7.626,5.432-11.587,7.949c-4.276,2.289-8.96,4.734-13.644,2.583c-5.079-3.798-7.898-11.533-9.96-18.264
		c-1.371-7.705-3.271-16.063-2.121-24.43l2.198-2.835c4.384-4.272,11.404-2.848,17.105-2.371c3.725,0.917,7.449,1.778,11.155,2.661
		c-0.472-4.894-0.742-9.845-0.814-14.845c-0.083-0.052-0.167-0.1-0.25-0.152c-0.993-2.142-0.701-3.69,0.249-4.936
		c0.07-5.234,0.354-10.417,0.864-15.535c-4.571,1.127-9.182,2.114-13.835,2.927c-4.826,0.478-10.09,0.952-13.594-2.833
		c-3.852-6.484-2.621-16.889-1.826-24.515c1.398-6.503,2.992-13.319,6.523-19.338l3.115-1.789
		c5.688-2.262,11.622,1.733,16.717,4.357c3.229,2.378,6.48,4.702,9.703,7.039c1.428-4.714,3.035-9.35,4.831-13.892
		c-0.164-0.23-0.334-0.452-0.498-0.682c-0.113-2.722,1.052-4.06,2.779-4.79c2.017-4.643,4.218-9.187,6.605-13.616
		c-4.828-0.722-9.64-1.596-14.421-2.664c-4.645-1.404-9.699-2.979-11.477-7.817c-0.876-6.046,2.319-13.191,5.509-19.277
		c4.394-6.323,8.909-13.391,15.509-18.385l3.566-0.455c6.115,0.08,10.069,6.051,13.767,10.419c2.064,3.412,4.169,6.784,6.243,10.159
		c3.108-3.83,6.364-7.534,9.772-11.093c-0.051-0.218-0.108-0.433-0.158-0.653c0.892-2.432,2.372-3.265,4.126-3.353
		c3.63-3.562,7.404-6.978,11.325-10.224c-4.094-2.467-8.118-5.062-12.043-7.816c-3.75-3.078-7.815-6.474-7.606-11.621
		c1.67-6.604,8.57-12.547,14.28-17.197c6.378-4.107,13.14-8.769,21.007-10.814l3.463,0.934c5.611,2.419,6.984,9.441,8.73,14.904
		c0.595,3.9,1.243,7.778,1.861,11.645c4.328-2.321,8.763-4.467,13.293-6.436c0.035-0.203,0.061-0.406,0.096-0.61
		c1.738-1.882,3.409-2.102,5.046-1.537c4.727-1.88,9.555-3.56,14.47-5.041c-2.853-3.863-5.591-7.82-8.176-11.89
		c-2.282-4.275-4.73-8.958-2.581-13.643c3.725-4.98,11.244-7.786,17.889-9.845c7.767-1.375,16.193-3.318,24.634-2.153l2.841,2.2
		c4.27,4.378,2.841,11.399,2.374,17.118c-0.943,3.822-1.828,7.646-2.736,11.45c4.857-0.474,9.771-0.749,14.733-0.829
		c0.114-0.184,0.221-0.369,0.337-0.553c2.352-1.088,3.986-0.629,5.288,0.549c5.138,0.075,10.227,0.357,15.251,0.855
		c-1.155-4.664-2.167-9.371-2.995-14.121c-0.489-4.821-0.957-10.091,2.82-13.59c6.656-3.962,17.45-2.55,25.129-1.765
		c1.646,0.171,3.25,0.429,4.842,0.71c4.711,1.18,9.419,2.712,13.716,5.235l1.787,3.113c2.271,5.681-1.733,11.625-4.361,16.721
		c-2.519,3.424-4.976,6.872-7.453,10.285c4.648,1.386,9.22,2.95,13.703,4.693c0.435-0.314,0.859-0.637,1.299-0.947
		c3.118-0.129,4.417,1.421,5.065,3.57c4.515,1.959,8.934,4.096,13.247,6.407c0.735-5.027,1.638-10.036,2.747-15.013
		c1.4-4.649,2.985-9.693,7.822-11.477c5.568-0.814,12.076,1.839,17.828,4.758c6.739,4.804,14.675,9.527,20.135,16.746l0.46,3.562
		c-0.075,6.122-6.049,10.067-10.422,13.775c-3.486,2.107-6.928,4.257-10.373,6.373c3.813,3.085,7.506,6.313,11.053,9.694
		c0.306-0.072,0.606-0.152,0.913-0.221c2.576,0.949,3.357,2.555,3.357,4.448c3.521,3.587,6.896,7.315,10.108,11.186
		c2.5-4.155,5.134-8.239,7.933-12.222c3.062-3.755,6.459-7.8,11.604-7.613c6.026,1.528,11.488,7.38,15.928,12.726
		c4.254,6.684,9.328,13.758,11.49,22.04l-0.944,3.465c-2.419,5.628-9.453,6.99-14.901,8.745c-3.844,0.585-7.666,1.222-11.479,1.832
		c2.362,4.347,4.54,8.809,6.546,13.363c0.109,0.019,0.219,0.033,0.329,0.052c1.736,1.6,2.06,3.141,1.66,4.651
		c1.944,4.78,3.694,9.659,5.228,14.634c3.766-2.769,7.621-5.426,11.582-7.938c4.271-2.307,8.96-4.737,13.642-2.589
		c5.727,4.277,8.576,13.559,10.725,20.776C497.521,252.786,498.867,260.12,497.846,267.46"/>
</g>
</svg>
